<svg width="437" height="547" viewBox="0 0 437 547" fill="none" xmlns="http://www.w3.org/2000/svg">
<path d="M138.28 87.0488L217.647 41.1829L296.618 87.0495L217.649 132.117L138.28 87.0488Z" stroke="#6D28D9" stroke-width="20"/>
<path d="M217.78 224.674L297.147 178.808L376.118 224.675L297.149 269.742L217.78 224.674Z" stroke="#6D28D9" stroke-width="20"/>
<path d="M58.7799 224.674L138.147 178.808L217.118 224.675L138.149 269.742L58.7799 224.674Z" stroke="#6D28D9" stroke-width="20"/>
<path d="M218.161 132.889L296.662 87.4651L296.661 178.357L218.161 223.784L218.161 132.889Z" stroke="#6D28D9" stroke-width="20"/>
<path d="M138.7 270.476L217.201 225.052L217.2 315.944L138.7 361.371L138.7 270.476Z" stroke="#6D28D9" stroke-width="20"/>
<path d="M137.701 87.8612L216.202 130.101L216.202 222.209L137.7 176.383L137.701 87.8612Z" stroke="#6D28D9" stroke-width="20"/>
<path d="M218.383 226.788L296.885 269.028L296.885 361.136L218.383 315.31L218.383 226.788Z" stroke="#6D28D9" stroke-width="20"/>
<path d="M58.7947 225.542L137.036 268.262L136.471 360.369L58.2512 314.062L58.7947 225.542Z" stroke="#6D28D9" stroke-width="20"/>
<path d="M297.7 270.476L376.201 225.052L376.2 315.944L297.7 361.371L297.7 270.476Z" stroke="#6D28D9" stroke-width="20"/>
<rect x="207.662" y="318.625" width="21" height="227" fill="#6D28D9"/>
<rect x="206.936" y="457.195" width="107.381" height="20.8607" rx="10" transform="rotate(-28.0957 206.936 457.195)" fill="#6D28D9"/>
<path d="M140.92 535.492C140.917 529.969 145.391 525.49 150.914 525.486L285.556 525.406C291.078 525.403 295.558 529.878 295.562 535.4L295.562 536.261C295.565 541.784 291.091 546.264 285.568 546.267L150.926 546.347C145.404 546.35 140.924 541.876 140.921 536.353L140.92 535.492Z" fill="#6D28D9"/>
</svg>
