<svg width="198" height="393" viewBox="0 0 198 393" fill="none" xmlns="http://www.w3.org/2000/svg">
<rect x="5" y="5" width="189" height="385" rx="25" fill="#6D28D9"/>
<rect x="5" y="5" width="189" height="385" rx="25" stroke="black"/>
<rect x="22.1836" y="281.258" width="155.591" height="79.3511" rx="18" fill="white"/>
<ellipse cx="99.5018" cy="281.749" rx="24.8182" ry="24.9809" fill="#EB71C9"/>
<ellipse cx="99.5018" cy="281.749" rx="24.8182" ry="24.9809" fill="#EB71C9"/>
<ellipse cx="99.5018" cy="281.749" rx="24.8182" ry="24.9809" fill="#EB71C9"/>
<line x1="36.5" y1="319.443" x2="163.455" y2="319.443" stroke="black" stroke-width="2"/>
<line x1="36.5" y1="333.16" x2="163.455" y2="333.16" stroke="black" stroke-width="2"/>
<line x1="36.5" y1="345.895" x2="163.455" y2="345.895" stroke="black" stroke-width="2"/>
<rect x="21" y="146.49" width="155.591" height="79.3511" rx="18" fill="white"/>
<ellipse cx="98.3182" cy="146.981" rx="24.8182" ry="24.9809" fill="#EB71C9"/>
<ellipse cx="98.3182" cy="146.981" rx="24.8182" ry="24.9809" fill="#EB71C9"/>
<ellipse cx="98.3182" cy="146.981" rx="24.8182" ry="24.9809" fill="#EB71C9"/>
<line x1="35.3164" y1="184.68" x2="162.271" y2="184.68" stroke="black" stroke-width="2"/>
<line x1="35.3164" y1="198.395" x2="162.271" y2="198.395" stroke="black" stroke-width="2"/>
<line x1="35.3164" y1="211.127" x2="162.271" y2="211.127" stroke="black" stroke-width="2"/>
<rect x="3.5" y="3.5" width="191" height="386" rx="21.5" stroke="black" stroke-width="7"/>
<path d="M59.7363 70.7568H51.2988V76.4697H61.2012V80H46.9043V58.6719H61.1719V62.2314H51.2988V67.3145H59.7363V70.7568ZM67.3975 64.1504L67.5293 65.9814C68.6621 64.5654 70.1807 63.8574 72.085 63.8574C73.7646 63.8574 75.0146 64.3506 75.835 65.3369C76.6553 66.3232 77.0752 67.7979 77.0947 69.7607V80H72.8613V69.8633C72.8613 68.9648 72.666 68.3154 72.2754 67.915C71.8848 67.5049 71.2354 67.2998 70.3271 67.2998C69.1357 67.2998 68.2422 67.8076 67.6465 68.8232V80H63.4131V64.1504H67.3975ZM88.9014 75.6201C88.9014 75.1025 88.6426 74.6973 88.125 74.4043C87.6172 74.1016 86.7969 73.833 85.6641 73.5986C81.8945 72.8076 80.0098 71.2061 80.0098 68.7939C80.0098 67.3877 80.5908 66.2158 81.7529 65.2783C82.9248 64.3311 84.4531 63.8574 86.3379 63.8574C88.3496 63.8574 89.9561 64.3311 91.1572 65.2783C92.3682 66.2256 92.9736 67.4561 92.9736 68.9697H88.7402C88.7402 68.3643 88.5449 67.8662 88.1543 67.4756C87.7637 67.0752 87.1533 66.875 86.3232 66.875C85.6104 66.875 85.0586 67.0361 84.668 67.3584C84.2773 67.6807 84.082 68.0908 84.082 68.5889C84.082 69.0576 84.3018 69.4385 84.7412 69.7314C85.1904 70.0146 85.9424 70.2637 86.9971 70.4785C88.0518 70.6836 88.9404 70.918 89.6631 71.1816C91.8994 72.002 93.0176 73.4229 93.0176 75.4443C93.0176 76.8896 92.3975 78.0615 91.1572 78.96C89.917 79.8486 88.3154 80.293 86.3525 80.293C85.0244 80.293 83.8428 80.0586 82.8076 79.5898C81.7822 79.1113 80.9766 78.4619 80.3906 77.6416C79.8047 76.8115 79.5117 75.918 79.5117 74.9609H83.5254C83.5645 75.7129 83.8428 76.2891 84.3604 76.6895C84.8779 77.0898 85.5713 77.29 86.4404 77.29C87.251 77.29 87.8613 77.1387 88.2715 76.8359C88.6914 76.5234 88.9014 76.1182 88.9014 75.6201ZM112.09 62.2314H105.557V80H101.162V62.2314H94.7168V58.6719H112.09V62.2314ZM122.271 68.1201C121.694 68.042 121.187 68.0029 120.747 68.0029C119.146 68.0029 118.096 68.5449 117.598 69.6289V80H113.364V64.1504H117.363L117.48 66.04C118.33 64.585 119.507 63.8574 121.011 63.8574C121.479 63.8574 121.919 63.9209 122.329 64.0479L122.271 68.1201ZM131.323 80.293C128.999 80.293 127.104 79.5801 125.64 78.1543C124.185 76.7285 123.457 74.8291 123.457 72.4561V72.0459C123.457 70.4541 123.765 69.0332 124.38 67.7832C124.995 66.5234 125.864 65.5566 126.987 64.8828C128.12 64.1992 129.409 63.8574 130.854 63.8574C133.022 63.8574 134.727 64.541 135.967 65.9082C137.217 67.2754 137.842 69.2139 137.842 71.7236V73.4521H127.749C127.886 74.4873 128.296 75.3174 128.979 75.9424C129.673 76.5674 130.547 76.8799 131.602 76.8799C133.232 76.8799 134.507 76.2891 135.425 75.1074L137.505 77.4365C136.87 78.335 136.011 79.0381 134.927 79.5459C133.843 80.0439 132.642 80.293 131.323 80.293ZM130.84 67.2852C130 67.2852 129.316 67.5684 128.789 68.1348C128.271 68.7012 127.939 69.5117 127.793 70.5664H133.682V70.2295C133.662 69.292 133.408 68.5693 132.92 68.0615C132.432 67.5439 131.738 67.2852 130.84 67.2852ZM147.554 80.293C145.229 80.293 143.335 79.5801 141.87 78.1543C140.415 76.7285 139.688 74.8291 139.688 72.4561V72.0459C139.688 70.4541 139.995 69.0332 140.61 67.7832C141.226 66.5234 142.095 65.5566 143.218 64.8828C144.351 64.1992 145.64 63.8574 147.085 63.8574C149.253 63.8574 150.957 64.541 152.197 65.9082C153.447 67.2754 154.072 69.2139 154.072 71.7236V73.4521H143.979C144.116 74.4873 144.526 75.3174 145.21 75.9424C145.903 76.5674 146.777 76.8799 147.832 76.8799C149.463 76.8799 150.737 76.2891 151.655 75.1074L153.735 77.4365C153.101 78.335 152.241 79.0381 151.157 79.5459C150.073 80.0439 148.872 80.293 147.554 80.293ZM147.07 67.2852C146.23 67.2852 145.547 67.5684 145.02 68.1348C144.502 68.7012 144.17 69.5117 144.023 70.5664H149.912V70.2295C149.893 69.292 149.639 68.5693 149.15 68.0615C148.662 67.5439 147.969 67.2852 147.07 67.2852Z" fill="white"/>
</svg>
